<svg id="Ebene_1" data-name="Ebene 1" xmlns="http://www.w3.org/2000/svg" xmlns:xlink="http://www.w3.org/1999/xlink" viewBox="0 0 229.41 158.4"><defs><style>.cls-1,.cls-6{fill:none;}.cls-2,.cls-3{fill:#fff;}.cls-2{opacity:0.8;}.cls-4{clip-path:url(#clip-path);}.cls-5{fill:#d80812;}.cls-6{stroke:#d80812;stroke-miterlimit:3.86;stroke-width:1.77px;}.cls-7,.cls-8{fill:#1d1d1b;}.cls-7{fill-rule:evenodd;}</style><clipPath id="clip-path" transform="translate(-0.3 -0.27)"><path class="cls-1" d="M81.18,1.17V48.7S82,80.2,114.56,80.2s33.38-31.5,33.38-31.5V1.17Z"/></clipPath></defs><title>g_logo</title><polygon class="cls-2" points="228.54 107 228.54 80.85 212.78 60.96 203.08 74.88 198.97 69.1 190.67 80.75 190.67 85.66 183.44 85.66 183.44 50.97 178.22 7.27 173.06 50.97 173.06 65.99 160.83 48.64 148.67 65.91 141.29 59.47 135.11 64.87 118.91 44.2 101.39 66.68 98.3 66.68 90.88 56.07 84.9 62.07 76.54 52.2 64.15 66.82 64.15 77.71 59.16 77.71 59.16 64.22 46.3 48.39 34.58 62.82 29.24 55.77 18.42 70.09 18.42 86.08 13.16 86.08 13.16 80.85 6.58 72.31 0 80.85 0 107 0 158.39 228.66 158.39 228.54 107"/><path class="cls-3" d="M81.18,48.7S82,80.2,114.56,80.2s33.38-31.5,33.38-31.5V1.17H81.18Z" transform="translate(-0.3 -0.27)"/><g class="cls-4"><path class="cls-5" d="M114.89,1V27c0,1.26.51,5.5,5.5,5.5h5.4V7.06c0-5-4.24-5.46-5.5-5.49l0-.82H141.9l0,.82h-.31c-1.26,0-5.49.51-5.49,5.49V32.54h6c5,0,5.47-4.24,5.5-5.5h.8V48.64l-.8,0v-.31c0-1.25-.51-5.49-5.5-5.49h-6V69.05c.45,4.07,3.12.88,3.6.31L140.81,68,137.37,81.8l-17.65-1.56,0-.81c.06,0,6,0,6-5.75V42.82h-5.4c-5,0-5.46,4.24-5.5,5.49v32H81.05V48.57h33V26.79h-33V1Z" transform="translate(-0.3 -0.27)"/></g><path class="cls-6" d="M81.18,48.7S82,80.2,114.56,80.2s33.38-31.5,33.38-31.5V1.17H81.18Z" transform="translate(-0.3 -0.27)"/><path class="cls-7" d="M27.49,99.41A8.37,8.37,0,0,0,20.15,95c-4.5,0-7.69,3.32-7.69,8a6.38,6.38,0,0,0,3.11,5.66l5.42,3c2.59,1.34,6.06,2.85,6.06,6.42a7.5,7.5,0,0,1-7.42,7.47c-3.62,0-6-2.35-7.25-5.71l-1.68.8c1.4,4.07,4.67,6.79,8.85,6.79A9.4,9.4,0,0,0,29,118.25,7,7,0,0,0,25.53,112l-5.74-3.15c-2.43-1.21-5.42-2.6-5.42-5.91A5.81,5.81,0,0,1,20,96.85a6.81,6.81,0,0,1,6.1,3.74Zm12.36-2.14h7.78V95.38H30.17v1.89h7.77V127h1.91ZM63.3,116.62l4,10.4h2L56.72,94.34,44.12,127h2l4-10.4Zm-.72-1.89H50.82l5.9-15.28ZM71.94,127h5.42c4.47,0,8-.84,11.33-4.19a17,17,0,0,0-.16-23.46c-3.31-3.23-6.78-4-11.17-4H71.94Zm1.92-1.88V97.27h3.46c3.75,0,6.86.72,9.73,3.44a14.83,14.83,0,0,1,.36,20.61c-2.87,3-6.14,3.82-10.09,3.82Zm30-27.87h7.78V95.38H94.19v1.89H102V127h1.91Zm20.65-1.89h-6.87V127h6.87ZM160.43,127h6.93l-5.29-32.48h-5l-8.33,20.86-8.7-20.86h-4.87L129.27,127h6.93l3.13-19.63,7.81,20h2.39l8-20ZM192,98.07c-2.16-2.14-6.51-3.53-9.64-3.53-5.94,0-10.3,4.24-10.3,9.49,0,4.91,3.33,7,7.87,8.64,2.76,1,6.12,1.89,6.12,5.16a4.42,4.42,0,0,1-4.53,4.58,7.13,7.13,0,0,1-6.37-4.62l-4.44,3.91c2.43,3.65,6,6.16,10.85,6.16,7.21,0,11.61-4.49,11.61-10.82,0-10.62-14-8.4-14-13.72,0-2.06,2.1-3.57,4.3-3.57a6.57,6.57,0,0,1,5.29,2.6Zm18,2.69h7.11V95.38H196v5.38h7.11V127H210Z" transform="translate(-0.3 -0.27)"/><polygon class="cls-8" points="41.19 153.6 36.82 141.97 38.41 141.97 41.26 149.84 44.7 141.39 48.13 149.84 50.98 141.97 52.58 141.97 48.2 153.6 44.72 144.9 41.19 153.6"/><polygon class="cls-8" points="57.54 153.6 53.18 141.97 54.77 141.97 57.62 149.84 61.05 141.39 64.48 149.84 67.34 141.97 68.93 141.97 64.56 153.6 61.08 144.9 57.54 153.6"/><polygon class="cls-8" points="73.9 153.6 69.53 141.97 71.12 141.97 73.97 149.84 77.41 141.39 80.84 149.84 83.69 141.97 85.28 141.97 80.91 153.6 77.43 144.9 73.9 153.6"/><path class="cls-8" d="M88.26,152.14a1.21,1.21,0,0,1,.35-.89,1.22,1.22,0,0,1,.9-.37,1.17,1.17,0,0,1,.89.37,1.19,1.19,0,0,1,.37.89,1.22,1.22,0,0,1-.37.9,1.2,1.2,0,0,1-.89.36,1.21,1.21,0,0,1-1.25-1.26" transform="translate(-0.3 -0.27)"/><path class="cls-7" d="M95.27,142.24h1.56v10.93H95.27ZM94.89,138a1.11,1.11,0,0,1,.34-.82,1.13,1.13,0,0,1,.83-.34,1.11,1.11,0,0,1,.82.34,1.12,1.12,0,0,1,0,1.64,1.14,1.14,0,0,1-.83.34,1.18,1.18,0,0,1-.84-.34,1.11,1.11,0,0,1-.33-.82" transform="translate(-0.3 -0.27)"/><path class="cls-8" d="M102.49,153.17H101V142.24h1.52V144a3.9,3.9,0,0,1,1.43-1.57,3.85,3.85,0,0,1,2-.55,3.61,3.61,0,0,1,2,.56,3.5,3.5,0,0,1,1.31,1.6,4.33,4.33,0,0,1,1.6-1.61,4.38,4.38,0,0,1,2.2-.55,3.61,3.61,0,0,1,2.74,1.06,4,4,0,0,1,1,2.89v7.39h-1.52v-6.79a3.74,3.74,0,0,0-.66-2.41,2.35,2.35,0,0,0-2-.82,2.65,2.65,0,0,0-2.31,1,5.71,5.71,0,0,0-.72,3.24v5.75h-1.51v-6.79a3.87,3.87,0,0,0-.63-2.45,2.34,2.34,0,0,0-1.94-.78,2.72,2.72,0,0,0-2.36,1,5.56,5.56,0,0,0-.75,3.23Z" transform="translate(-0.3 -0.27)"/><path class="cls-8" d="M119.65,151.23l1.44-.83a2.66,2.66,0,0,0,2.7,1.84,2.3,2.3,0,0,0,1.53-.48,1.68,1.68,0,0,0,.56-1.31c0-.84-.74-1.55-2.23-2.13l-.37-.15a7,7,0,0,1-2.41-1.39,2.51,2.51,0,0,1-.69-1.79,2.94,2.94,0,0,1,1-2.28,3.64,3.64,0,0,1,2.55-.9,4.19,4.19,0,0,1,2.27.58,3.38,3.38,0,0,1,1.37,1.65l-1.39.78a2.27,2.27,0,0,0-.87-1.19,2.58,2.58,0,0,0-1.48-.4,1.83,1.83,0,0,0-1.3.47,1.45,1.45,0,0,0-.51,1.14,1.41,1.41,0,0,0,.51,1.12,6.78,6.78,0,0,0,2.09,1,5.54,5.54,0,0,1,2.42,1.37,3,3,0,0,1,.63,2,3,3,0,0,1-1.07,2.4,4.36,4.36,0,0,1-2.89.9,4.51,4.51,0,0,1-2.4-.62,3.57,3.57,0,0,1-1.44-1.8" transform="translate(-0.3 -0.27)"/><polygon class="cls-8" points="130.55 143.26 128.54 143.26 128.54 141.97 130.55 141.97 130.55 137.48 132.04 137.48 132.04 141.97 134.24 141.97 134.24 143.26 132.04 143.26 132.04 152.9 130.55 152.9 130.55 143.26"/><path class="cls-8" d="M137.15,152.14a1.25,1.25,0,0,1,.35-.89,1.22,1.22,0,0,1,.9-.37,1.17,1.17,0,0,1,.89.37,1.19,1.19,0,0,1,.37.89,1.22,1.22,0,0,1-.37.9,1.2,1.2,0,0,1-.89.36,1.25,1.25,0,0,1-.9-.36,1.29,1.29,0,0,1-.35-.9" transform="translate(-0.3 -0.27)"/><path class="cls-7" d="M148.45,143.23a3.25,3.25,0,0,0-2.69,1.22,5.14,5.14,0,0,0-1,3.33,5.27,5.27,0,0,0,.92,3.29,3.14,3.14,0,0,0,2.59,1.17,3.48,3.48,0,0,0,2.8-1.25,5,5,0,0,0,1.06-3.35,4.86,4.86,0,0,0-1-3.24,3.35,3.35,0,0,0-2.72-1.17m5.22-1v9c0,1.43,0,2.53-.12,3.29a5.09,5.09,0,0,1-.38,1.68,3.76,3.76,0,0,1-1.74,1.82,6.47,6.47,0,0,1-3,.6,5.88,5.88,0,0,1-3.4-.85,3.6,3.6,0,0,1-1.46-2.55h1.89a2.3,2.3,0,0,0,1,1.53,3.92,3.92,0,0,0,2.14.51,4.4,4.4,0,0,0,1.81-.35,2.71,2.71,0,0,0,1.22-1A2.6,2.6,0,0,0,152,155a8.14,8.14,0,0,0,.12-1.65v-2.22a3.94,3.94,0,0,1-1.55,1.84,4.32,4.32,0,0,1-2.38.66,4.61,4.61,0,0,1-3.68-1.6,6.41,6.41,0,0,1-1.37-4.3,6.35,6.35,0,0,1,1.4-4.29,4.71,4.71,0,0,1,3.73-1.63,4.24,4.24,0,0,1,2.34.68,3.78,3.78,0,0,1,1.51,1.78v-2Z" transform="translate(-0.3 -0.27)"/><polygon class="cls-8" points="155.78 141.97 157.45 141.97 160.8 150.25 164.14 141.97 165.83 141.97 160.8 153.6 155.78 141.97"/><path class="cls-8" d="M168.85,152.14a1.25,1.25,0,0,1,.35-.89,1.22,1.22,0,0,1,.9-.37,1.17,1.17,0,0,1,.89.37,1.19,1.19,0,0,1,.37.89,1.22,1.22,0,0,1-.37.9,1.2,1.2,0,0,1-.89.36,1.25,1.25,0,0,1-.9-.36,1.29,1.29,0,0,1-.35-.9" transform="translate(-0.3 -0.27)"/><path class="cls-7" d="M183.83,153.17v-2a3.94,3.94,0,0,1-3.83,2.47,4.84,4.84,0,0,1-3.8-1.61,6.22,6.22,0,0,1-1.43-4.26,6.37,6.37,0,0,1,1.42-4.28,4.9,4.9,0,0,1,6.07-1.05,3.94,3.94,0,0,1,1.57,1.79v-2h1.52v10.93Zm-7.37-5.35a5,5,0,0,0,.95,3.27,3.38,3.38,0,0,0,2.74,1.15,3.27,3.27,0,0,0,2.71-1.25,5.45,5.45,0,0,0,1-3.45,4.65,4.65,0,0,0-1-3.15,3.66,3.66,0,0,0-5.41.07,5.18,5.18,0,0,0-1,3.36" transform="translate(-0.3 -0.27)"/><polygon class="cls-8" points="189.44 143.26 187.43 143.26 187.43 141.97 189.44 141.97 189.44 137.48 190.93 137.48 190.93 141.97 193.13 141.97 193.13 143.26 190.93 143.26 190.93 152.9 189.44 152.9 189.44 143.26"/><rect class="cls-1" width="229.41" height="158.39"/></svg>